<mxfile host="app.diagrams.net" modified="2023-04-17T12:29:17.589Z" agent="Mozilla/5.0 (Windows NT 10.0; Win64; x64; rv:109.0) Gecko/20100101 Firefox/112.0" version="21.1.8" etag="62AgvpwWzx6e9juGFmct" type="github">
  <diagram name="Page-1" id="8CFkx0u-gaAyG3x4pVRe">
    <mxGraphModel>
      <root>
        <mxCell id="0" />
        <mxCell id="1" parent="0" />
      </root>
    </mxGraphModel>
  </diagram>
</mxfile>
